# xmcd
# Track frame offsets:
# 150
# 16938
# 29822
# 43638
# 59674
# 77031
# 92960
# 106788
# 121725
# 143668
# 160782
# 182129
# 195732
# 215082
# 233243
# 247513
# 264276
# 280169
# 299035
# 313984
# 328669
#
# Disc length: 4624 seconds
# Revision: 0
# Processed by: cddbd v1.5.2PL0 Copyright (c) Steve Scherf et al.
# Submitted via: VisiTrax 2.11.3.279 - For more info visit www.synapsa.com
#
DISCID=34120e15
DTITLE=Various Artist - So Country 2016 CD 1
DYEAR=2016
DGENRE=Country
TTITLE0=Jason Aldean - Burnin' It Down
TTITLE1=Lady Antebellum - Long Stretch Of Love
TTITLE2=Adam Brand and The Outlaws - I Fought The Law
TTITLE3=Alan Jackson - Angels And Alcohol
TTITLE4=Troy Cassar-Daley - Take A Walk In My Country
TTITLE5=Carrie Underwood - Heartbeat
TTITLE6=Kenny Chesney - Save It For A Rainy Day
TTITLE7=Kacey Musgraves - Biscuits
TTITLE8=Chris Stapleton - Tennessee Whiskey
TTITLE9=Brad Paisley - Country Nation
TTITLE10=Adam Harvey - Harvey's Backyard Bar
TTITLE11=Catherine Britt - Boneshaker
TTITLE12=Beccy Cole - Broken Soldiers
TTITLE13=Chase Rice - Ride
TTITLE14=Billy Currington - Don't It
TTITLE15=Drew McAlister - Till Summer Slips Away
TTITLE16=Lee Brice - That Don't Sound Like You
TTITLE17=Dierks Bentley - Riser
TTITLE18=Chris Young - I'm Comin' Over
TTITLE19=O'Shea - Parade
TTITLE20=Adam Eckersley Band - Wheels
EXTD=
EXTT0=
EXTT1=
EXTT2=
EXTT3=
EXTT4=
EXTT5=
EXTT6=
EXTT7=
EXTT8=
EXTT9=
EXTT10=
EXTT11=
EXTT12=
EXTT13=
EXTT14=
EXTT15=
EXTT16=
EXTT17=
EXTT18=
EXTT19=
EXTT20=
PLAYORDER=
